<mxfile host="app.diagrams.net" agent="Mozilla/5.0 (Windows NT 10.0; Win64; x64) AppleWebKit/537.36 (KHTML, like Gecko) Chrome/131.0.0.0 Safari/537.36" version="25.0.3">
  <diagram name="Trang-1" id="YCs-DhxkvGVUxs4pUMEr">
    <mxGraphModel dx="1050" dy="557" grid="1" gridSize="10" guides="1" tooltips="1" connect="1" arrows="1" fold="1" page="1" pageScale="1" pageWidth="827" pageHeight="1169" math="0" shadow="0">
      <root>
        <mxCell id="0" />
        <mxCell id="1" parent="0" />
        <mxCell id="5DU51O4l-qX1tjyKeUcz-2" value="End" style="strokeWidth=2;html=1;shape=mxgraph.flowchart.start_1;whiteSpace=wrap;" parent="1" vertex="1">
          <mxGeometry x="364" y="500" width="100" height="60" as="geometry" />
        </mxCell>
        <mxCell id="5DU51O4l-qX1tjyKeUcz-15" style="edgeStyle=orthogonalEdgeStyle;rounded=0;orthogonalLoop=1;jettySize=auto;html=1;" parent="1" source="5DU51O4l-qX1tjyKeUcz-3" target="5DU51O4l-qX1tjyKeUcz-5" edge="1">
          <mxGeometry relative="1" as="geometry" />
        </mxCell>
        <mxCell id="5DU51O4l-qX1tjyKeUcz-3" value="Start" style="strokeWidth=2;html=1;shape=mxgraph.flowchart.start_1;whiteSpace=wrap;" parent="1" vertex="1">
          <mxGeometry x="364" y="40" width="100" height="60" as="geometry" />
        </mxCell>
        <mxCell id="5DU51O4l-qX1tjyKeUcz-16" style="edgeStyle=orthogonalEdgeStyle;rounded=0;orthogonalLoop=1;jettySize=auto;html=1;" parent="1" source="5DU51O4l-qX1tjyKeUcz-5" target="5DU51O4l-qX1tjyKeUcz-8" edge="1">
          <mxGeometry relative="1" as="geometry" />
        </mxCell>
        <mxCell id="5DU51O4l-qX1tjyKeUcz-5" value="diem" style="shape=parallelogram;html=1;strokeWidth=2;perimeter=parallelogramPerimeter;whiteSpace=wrap;rounded=1;arcSize=12;size=0.23;" parent="1" vertex="1">
          <mxGeometry x="349" y="130" width="130" height="60" as="geometry" />
        </mxCell>
        <mxCell id="5DU51O4l-qX1tjyKeUcz-9" style="edgeStyle=orthogonalEdgeStyle;rounded=0;orthogonalLoop=1;jettySize=auto;html=1;" parent="1" source="5DU51O4l-qX1tjyKeUcz-8" edge="1">
          <mxGeometry relative="1" as="geometry">
            <mxPoint x="580" y="390" as="targetPoint" />
            <Array as="points">
              <mxPoint x="580" y="270" />
            </Array>
          </mxGeometry>
        </mxCell>
        <mxCell id="5DU51O4l-qX1tjyKeUcz-14" value="False" style="edgeLabel;html=1;align=center;verticalAlign=middle;resizable=0;points=[];" parent="5DU51O4l-qX1tjyKeUcz-9" vertex="1" connectable="0">
          <mxGeometry x="0.2193" y="-1" relative="1" as="geometry">
            <mxPoint as="offset" />
          </mxGeometry>
        </mxCell>
        <mxCell id="5DU51O4l-qX1tjyKeUcz-10" style="edgeStyle=orthogonalEdgeStyle;rounded=0;orthogonalLoop=1;jettySize=auto;html=1;exitX=0;exitY=0.5;exitDx=0;exitDy=0;exitPerimeter=0;" parent="1" source="5DU51O4l-qX1tjyKeUcz-8" edge="1">
          <mxGeometry relative="1" as="geometry">
            <mxPoint x="280" y="390" as="targetPoint" />
            <Array as="points">
              <mxPoint x="240" y="270" />
              <mxPoint x="240" y="390" />
            </Array>
          </mxGeometry>
        </mxCell>
        <mxCell id="5DU51O4l-qX1tjyKeUcz-13" value="True" style="edgeLabel;html=1;align=center;verticalAlign=middle;resizable=0;points=[];" parent="5DU51O4l-qX1tjyKeUcz-10" vertex="1" connectable="0">
          <mxGeometry x="0.1327" relative="1" as="geometry">
            <mxPoint as="offset" />
          </mxGeometry>
        </mxCell>
        <mxCell id="5DU51O4l-qX1tjyKeUcz-8" value="diem &amp;gt; 5" style="strokeWidth=2;html=1;shape=mxgraph.flowchart.decision;whiteSpace=wrap;" parent="1" vertex="1">
          <mxGeometry x="356" y="220" width="116" height="100" as="geometry" />
        </mxCell>
        <mxCell id="5DU51O4l-qX1tjyKeUcz-20" style="edgeStyle=orthogonalEdgeStyle;rounded=0;orthogonalLoop=1;jettySize=auto;html=1;entryX=0;entryY=0.5;entryDx=0;entryDy=0;entryPerimeter=0;exitX=0.5;exitY=1;exitDx=0;exitDy=0;" parent="1" source="5DU51O4l-qX1tjyKeUcz-11" target="5DU51O4l-qX1tjyKeUcz-2" edge="1">
          <mxGeometry relative="1" as="geometry">
            <mxPoint x="360" y="530" as="targetPoint" />
            <Array as="points">
              <mxPoint x="240" y="530" />
            </Array>
          </mxGeometry>
        </mxCell>
        <mxCell id="5DU51O4l-qX1tjyKeUcz-11" value="Xếp loại đạt" style="rounded=1;whiteSpace=wrap;html=1;absoluteArcSize=1;arcSize=14;strokeWidth=2;" parent="1" vertex="1">
          <mxGeometry x="180" y="360" width="120" height="50" as="geometry" />
        </mxCell>
        <mxCell id="5DU51O4l-qX1tjyKeUcz-19" style="edgeStyle=orthogonalEdgeStyle;rounded=0;orthogonalLoop=1;jettySize=auto;html=1;entryX=1;entryY=0.5;entryDx=0;entryDy=0;entryPerimeter=0;" parent="1" source="5DU51O4l-qX1tjyKeUcz-12" target="5DU51O4l-qX1tjyKeUcz-2" edge="1">
          <mxGeometry relative="1" as="geometry">
            <mxPoint x="580" y="540" as="targetPoint" />
            <Array as="points">
              <mxPoint x="580" y="530" />
            </Array>
          </mxGeometry>
        </mxCell>
        <mxCell id="5DU51O4l-qX1tjyKeUcz-12" value="Xếp loại không đạt" style="rounded=1;whiteSpace=wrap;html=1;absoluteArcSize=1;arcSize=14;strokeWidth=2;" parent="1" vertex="1">
          <mxGeometry x="520" y="360" width="120" height="50" as="geometry" />
        </mxCell>
      </root>
    </mxGraphModel>
  </diagram>
</mxfile>
